<svg version="1.1" xmlns="http://www.w3.org/2000/svg" viewBox="0 0 614.3012714496026 442.201904296875" width="1228.6025428992052" height="884.40380859375">
  <!-- svg-source:excalidraw -->
  
  <defs>
    <style>
      @font-face {
        font-family: "Virgil";
        src: url("https://unpkg.com/@zsviczian/excalidraw@0.12.0-obsidian-8/dist/excalidraw-assets/Virgil.woff2");
      }
      @font-face {
        font-family: "Cascadia";
        src: url("https://unpkg.com/@zsviczian/excalidraw@0.12.0-obsidian-8/dist/excalidraw-assets/Cascadia.woff2");
      }
    </style>
  </defs>
  <rect x="0" y="0" width="614.3012714496026" height="442.201904296875" fill="#ffffff"/><g stroke-linecap="round"><g transform="translate(13.34332275390625 351.23529052734375) rotate(0 244.61410522460938 0.4305419921875)"><path d="M-0.19 1 C81.37 0.94, 407.98 -0.22, 489.74 -0.29 M-1.74 0.48 C79.66 0.52, 407.08 0.43, 489.07 0.64" stroke="#000000" stroke-width="1" fill="none"/></g></g><g transform="translate(133.39537048339844 364.81494140625) rotate(0 20.5 9.5)"><text x="0" y="15" font-family="Helvetica, Segoe UI Emoji" font-size="16px" fill="#000000" text-anchor="start" style="white-space: pre;" direction="ltr">12:10</text></g><g transform="translate(232.77960205078125 364.27618408203125) rotate(0 20.5 9.5)"><text x="0" y="15" font-family="Helvetica, Segoe UI Emoji" font-size="16px" fill="#000000" text-anchor="start" style="white-space: pre;" direction="ltr">12:20</text></g><g stroke-linecap="round"><g transform="translate(70.129150390625 10) rotate(0 0.94818115234375 211.1009521484375)"><path d="M1.1 -0.78 C1.46 69.51, 2.64 351.5, 2.82 421.95 M0.22 1.42 C0.44 71.87, 2.13 353.07, 2.35 423.36" stroke="#000000" stroke-width="1" fill="none"/></g></g><g transform="translate(330.2640380859375 363.92047119140625) rotate(0 20.5 9.5)"><text x="0" y="15" font-family="Helvetica, Segoe UI Emoji" font-size="16px" fill="#000000" text-anchor="start" style="white-space: pre;" direction="ltr">12:30</text></g><g transform="translate(15.605133056640625 267.71490478515625) rotate(0 20.5 9.5)"><text x="0" y="15" font-family="Helvetica, Segoe UI Emoji" font-size="16px" fill="#000000" text-anchor="start" style="white-space: pre;" direction="ltr">12:10</text></g><g transform="translate(14.154266357421875 181.88330078125) rotate(0 20.5 9.5)"><text x="0" y="15" font-family="Helvetica, Segoe UI Emoji" font-size="16px" fill="#000000" text-anchor="start" style="white-space: pre;" direction="ltr">12:20</text></g><g transform="translate(17.898468017578125 103.63381958007812) rotate(0 20.5 9.5)"><text x="0" y="15" font-family="Helvetica, Segoe UI Emoji" font-size="16px" fill="#000000" text-anchor="start" style="white-space: pre;" direction="ltr">12:30</text></g><g stroke-linecap="round"><g transform="translate(10 407.32366943359375) rotate(0 210.9854736328125 -196.1051025390625)"><path d="M0.54 -0.08 C70.62 -65.24, 350.67 -326.26, 420.9 -391.48" stroke="#c92a2a" stroke-width="1.5" fill="none" stroke-dasharray="8 9"/></g></g><g transform="translate(24.192169189453125 406.5172119140625) rotate(0 20 9.5)"><text x="0" y="15" font-family="Helvetica, Segoe UI Emoji" font-size="16px" fill="#000000" text-anchor="start" style="white-space: pre;" direction="ltr">11:50</text></g><g stroke-linecap="round" transform="translate(147.99639892578125 318.1287841796875) rotate(0 6.59197998046875 6.23883056640625)"><path d="M6.18 -0.36 C7.23 -0.55, 7.86 0.69, 8.95 1.54 C10.04 2.39, 12 3.54, 12.71 4.75 C13.42 5.95, 13.86 7.54, 13.23 8.77 C12.6 10, 10.24 11.46, 8.93 12.12 C7.62 12.78, 6.67 13.05, 5.37 12.72 C4.07 12.39, 2.14 11.39, 1.14 10.14 C0.14 8.9, -0.67 6.4, -0.63 5.24 C-0.59 4.09, 0.18 4.06, 1.38 3.21 C2.59 2.36, 5.23 0.73, 6.6 0.13 C7.96 -0.47, 9.61 -0.59, 9.59 -0.41 M7.34 0.16 C8.44 0.28, 9.46 0.71, 10.31 1.62 C11.17 2.52, 12.33 4.44, 12.47 5.6 C12.6 6.76, 11.63 7.32, 11.13 8.57 C10.63 9.83, 10.72 12.61, 9.47 13.16 C8.21 13.7, 4.82 12.48, 3.59 11.84 C2.36 11.21, 2.64 10.43, 2.06 9.35 C1.49 8.27, 0.11 6.8, 0.15 5.36 C0.18 3.92, 1.28 1.58, 2.3 0.73 C3.31 -0.12, 5.38 0.49, 6.23 0.28 C7.07 0.08, 7.11 -0.76, 7.37 -0.51" stroke="none" stroke-width="0" fill="#82c91e"/><path d="M5.03 0.25 C6.19 -0.03, 7.73 0.32, 8.79 0.9 C9.86 1.48, 10.72 2.73, 11.43 3.72 C12.15 4.71, 13.25 5.6, 13.09 6.83 C12.92 8.06, 11.38 10.15, 10.42 11.09 C9.47 12.04, 8.58 12.6, 7.34 12.52 C6.11 12.43, 4.32 11.32, 3 10.58 C1.67 9.84, -0.27 9.45, -0.62 8.07 C-0.98 6.7, -0.13 3.74, 0.88 2.33 C1.9 0.91, 4.4 -0.2, 5.47 -0.43 C6.54 -0.66, 7.29 0.74, 7.31 0.96 M4.98 -1.38 C6.47 -1.65, 9.98 1.22, 11.09 2.04 C12.19 2.85, 11.27 2.25, 11.63 3.53 C11.98 4.8, 13.44 8.24, 13.23 9.67 C13.01 11.11, 11.64 11.53, 10.33 12.12 C9.02 12.72, 6.86 13.67, 5.37 13.26 C3.88 12.84, 2.23 11.03, 1.37 9.62 C0.5 8.21, 0.25 6.3, 0.17 4.8 C0.09 3.3, 0.11 1.41, 0.9 0.62 C1.69 -0.18, 4.22 0.11, 4.92 0.02 C5.63 -0.08, 4.8 -0.24, 5.12 0.07" stroke="#000000" stroke-width="0.5" fill="none"/></g><g stroke-linecap="round" transform="translate(183.8939208984375 306.921875) rotate(0 6.59197998046875 6.23883056640625)"><path d="M9.24 -0.12 C10.55 0.31, 12.62 2.64, 13.3 3.89 C13.97 5.14, 13.87 6.34, 13.3 7.37 C12.73 8.4, 11.1 9.25, 9.9 10.07 C8.7 10.88, 7.37 12.26, 6.1 12.26 C4.84 12.26, 3.19 11.06, 2.32 10.07 C1.45 9.08, 1.16 7.55, 0.88 6.3 C0.6 5.06, 0.12 3.46, 0.64 2.59 C1.16 1.72, 2.4 1.37, 3.99 1.09 C5.58 0.81, 9.05 0.55, 10.18 0.9 C11.3 1.25, 10.71 3.1, 10.75 3.19 M4.49 -0.21 C5.81 -0.59, 6.85 0.18, 7.98 0.85 C9.11 1.51, 10.34 2.97, 11.25 3.78 C12.17 4.6, 13.64 4.36, 13.45 5.72 C13.25 7.07, 11.32 10.87, 10.08 11.9 C8.85 12.94, 7.08 11.78, 6.06 11.92 C5.04 12.06, 4.82 13.33, 3.98 12.75 C3.14 12.16, 1.57 10.03, 1.02 8.4 C0.47 6.76, 0.19 4.35, 0.7 2.94 C1.21 1.53, 3.67 0.22, 4.1 -0.05 C4.52 -0.32, 3.44 0.97, 3.24 1.31" stroke="none" stroke-width="0" fill="#82c91e"/><path d="M3.92 0.3 C4.98 -0.45, 6.8 -0.8, 7.96 -0.47 C9.11 -0.14, 9.82 1.23, 10.86 2.3 C11.89 3.36, 14.06 4.44, 14.17 5.92 C14.28 7.4, 12.81 10.21, 11.53 11.18 C10.25 12.15, 7.81 11.69, 6.48 11.73 C5.16 11.78, 4.49 12.18, 3.57 11.45 C2.66 10.72, 1.41 8.61, 0.99 7.36 C0.58 6.1, 0.49 5.09, 1.09 3.93 C1.69 2.76, 3.8 0.93, 4.6 0.36 C5.4 -0.21, 5.94 0.5, 5.88 0.5 M7.43 1.22 C8.57 1.51, 10.56 1.44, 11.53 2.28 C12.51 3.12, 13.4 4.97, 13.29 6.25 C13.17 7.53, 11.73 8.81, 10.85 9.98 C9.98 11.15, 9.4 12.77, 8.03 13.27 C6.67 13.76, 3.75 13.72, 2.67 12.95 C1.59 12.18, 2.14 10, 1.57 8.65 C1 7.3, -0.83 6.22, -0.75 4.85 C-0.66 3.48, 0.62 1.4, 2.09 0.43 C3.55 -0.55, 7.19 -0.84, 8.02 -1.02 C8.85 -1.2, 6.89 -0.68, 7.06 -0.65" stroke="#000000" stroke-width="0.5" fill="none"/></g><g stroke-linecap="round" transform="translate(200.8939208984375 271.921875) rotate(0 6.59197998046875 6.23883056640625)"><path d="M8.72 0.83 C10.03 1.06, 11.27 1.51, 11.87 2.25 C12.46 2.99, 12.39 3.97, 12.28 5.27 C12.17 6.57, 11.95 9, 11.19 10.03 C10.43 11.06, 8.91 11.36, 7.73 11.46 C6.54 11.57, 5.34 11.26, 4.07 10.66 C2.81 10.06, 0.81 8.85, 0.13 7.87 C-0.55 6.9, -0.45 6.05, 0.02 4.82 C0.49 3.6, 1.53 1.09, 2.95 0.5 C4.37 -0.08, 7.16 1.13, 8.56 1.3 C9.96 1.46, 11.36 1.62, 11.34 1.48 M4.72 0.79 C5.77 0.73, 7.42 1.44, 8.8 1.75 C10.17 2.07, 12.45 1.41, 12.95 2.66 C13.44 3.92, 12.4 7.88, 11.77 9.26 C11.14 10.64, 9.94 10.16, 9.15 10.92 C8.35 11.69, 8.12 13.83, 7.02 13.86 C5.93 13.89, 3.75 12.42, 2.59 11.1 C1.44 9.79, 0.24 7.5, 0.07 5.97 C-0.1 4.43, 0.83 2.75, 1.56 1.89 C2.28 1.02, 4.03 0.92, 4.42 0.79 C4.8 0.66, 3.54 1.01, 3.85 1.11" stroke="none" stroke-width="0" fill="#82c91e"/><path d="M6.28 -0.62 C7.4 -0.71, 8.39 0.34, 9.68 1.16 C10.97 1.99, 13.57 2.88, 14.04 4.34 C14.51 5.79, 13.49 8.72, 12.51 9.89 C11.52 11.05, 9.34 10.96, 8.11 11.34 C6.87 11.71, 6.16 12.56, 5.09 12.13 C4.02 11.71, 2.43 9.92, 1.69 8.8 C0.95 7.69, 0.6 6.64, 0.64 5.46 C0.68 4.28, 0.89 2.58, 1.91 1.74 C2.93 0.89, 5.89 0.71, 6.75 0.39 C7.61 0.06, 6.94 -0.38, 7.06 -0.22 M4.65 0.31 C5.98 -0.3, 8.18 0.07, 9.36 0.55 C10.53 1.04, 11.06 1.88, 11.71 3.23 C12.36 4.57, 13.59 7.06, 13.28 8.62 C12.97 10.17, 10.84 11.89, 9.85 12.58 C8.86 13.26, 8.81 12.92, 7.32 12.73 C5.83 12.55, 2.3 12.51, 0.89 11.47 C-0.53 10.43, -1.25 8.13, -1.16 6.5 C-1.07 4.86, 0.54 2.84, 1.41 1.66 C2.29 0.47, 3.31 -0.15, 4.11 -0.61 C4.91 -1.08, 5.88 -1.55, 6.21 -1.12" stroke="#000000" stroke-width="0.5" fill="none"/></g><g stroke-linecap="round" transform="translate(270.8939208984375 231.921875) rotate(0 6.59197998046875 6.23883056640625)"><path d="M8.49 0.32 C9.91 0.15, 11.04 0.42, 11.66 1.33 C12.28 2.25, 12.25 4.31, 12.21 5.8 C12.17 7.29, 12.32 9.02, 11.41 10.25 C10.51 11.48, 8.32 12.98, 6.8 13.17 C5.29 13.35, 3.46 12.24, 2.31 11.37 C1.16 10.51, 0.09 9.25, -0.1 7.98 C-0.3 6.71, 0.61 5.1, 1.12 3.74 C1.64 2.39, 1.52 0.32, 2.98 -0.17 C4.43 -0.65, 8.65 0.72, 9.85 0.82 C11.04 0.93, 10.43 0.52, 10.15 0.49 M8.6 -0.63 C10.24 -0.33, 12.3 1.71, 12.88 2.71 C13.46 3.7, 12.09 4.23, 12.06 5.34 C12.03 6.45, 13.55 7.99, 12.7 9.37 C11.85 10.75, 8.32 13.14, 6.96 13.63 C5.59 14.12, 5.52 13.23, 4.51 12.33 C3.5 11.42, 1.68 9.58, 0.91 8.21 C0.14 6.84, -0.47 5.49, -0.13 4.13 C0.2 2.77, 1.44 0.93, 2.9 0.05 C4.35 -0.82, 7.63 -1.34, 8.61 -1.12 C9.59 -0.91, 8.8 1.2, 8.77 1.33" stroke="none" stroke-width="0" fill="#82c91e"/><path d="M7.09 -0.89 C8.47 -0.57, 10.55 2.01, 11.46 3.21 C12.37 4.41, 12.41 5.31, 12.56 6.32 C12.71 7.34, 13.27 8.2, 12.36 9.3 C11.44 10.4, 8.57 12.43, 7.06 12.94 C5.55 13.44, 4.51 13.01, 3.28 12.35 C2.05 11.69, 0.14 10.38, -0.32 8.96 C-0.78 7.54, -0.13 5.25, 0.5 3.83 C1.12 2.41, 2 1.17, 3.43 0.45 C4.86 -0.27, 8.13 -0.61, 9.08 -0.48 C10.03 -0.36, 9.11 1.03, 9.14 1.17 M6.02 0.13 C7.16 -0.19, 9.23 -0.49, 10.34 0.3 C11.46 1.08, 12.16 3.53, 12.69 4.85 C13.21 6.16, 13.81 6.82, 13.48 8.18 C13.16 9.55, 12.12 12.54, 10.74 13.03 C9.36 13.53, 6.68 11.87, 5.21 11.14 C3.75 10.41, 2.9 9.51, 1.96 8.67 C1.03 7.82, -0.2 7.29, -0.4 6.05 C-0.59 4.81, -0.14 1.99, 0.77 1.22 C1.69 0.46, 4.48 1.44, 5.09 1.44 C5.71 1.45, 4.14 1.23, 4.48 1.28" stroke="#000000" stroke-width="0.5" fill="none"/></g><g stroke-linecap="round" transform="translate(311.8939208984375 184.921875) rotate(0 6.59197998046875 6.23883056640625)"><path d="M5.15 0.22 C6.11 -0.47, 7.35 -0.91, 8.51 -0.37 C9.67 0.16, 11.4 2.19, 12.13 3.41 C12.87 4.64, 13.11 5.8, 12.94 6.97 C12.77 8.13, 12.33 9.56, 11.12 10.39 C9.92 11.22, 7.32 11.79, 5.71 11.95 C4.11 12.11, 2.53 12.27, 1.52 11.35 C0.51 10.43, -0.11 7.76, -0.33 6.42 C-0.55 5.07, -0.93 4.38, 0.22 3.26 C1.36 2.14, 5.46 0.34, 6.54 -0.3 C7.62 -0.94, 6.8 -0.81, 6.68 -0.58 M4.14 1.29 C5.53 0.6, 8.47 -1.11, 9.69 -0.52 C10.91 0.07, 11.08 3.53, 11.44 4.84 C11.81 6.15, 11.88 6.01, 11.9 7.34 C11.92 8.66, 12.42 11.83, 11.57 12.79 C10.72 13.74, 8.4 13.51, 6.8 13.04 C5.2 12.58, 3.06 11.17, 1.98 10.02 C0.89 8.87, 0.51 7.27, 0.27 6.15 C0.03 5.02, -0.03 4.13, 0.53 3.27 C1.1 2.42, 2.73 1.42, 3.64 1.03 C4.55 0.64, 5.96 1, 6.01 0.93" stroke="none" stroke-width="0" fill="#82c91e"/><path d="M4.33 -0.05 C5.81 -0.37, 9.34 -0.64, 10.76 0.15 C12.18 0.94, 12.65 3.45, 12.84 4.69 C13.03 5.92, 12.28 6.41, 11.9 7.56 C11.52 8.7, 11.5 10.86, 10.56 11.54 C9.62 12.23, 7.67 11.86, 6.28 11.68 C4.89 11.5, 3.3 11.32, 2.2 10.46 C1.11 9.6, -0.1 7.81, -0.29 6.52 C-0.48 5.22, 0.07 3.86, 1.06 2.69 C2.04 1.53, 4.48 -0.17, 5.62 -0.46 C6.75 -0.76, 7.84 0.77, 7.88 0.92 M9.11 0.46 C10.27 0.8, 10.88 1.69, 11.59 3 C12.29 4.32, 13.59 6.8, 13.33 8.37 C13.08 9.94, 11.02 11.7, 10.06 12.42 C9.1 13.15, 9.08 12.87, 7.59 12.74 C6.09 12.61, 2.54 12.64, 1.08 11.64 C-0.37 10.65, -1.16 8.38, -1.13 6.75 C-1.1 5.12, 0.44 3.08, 1.27 1.87 C2.1 0.65, 2.33 -0.05, 3.85 -0.54 C5.38 -1.03, 9.38 -1.42, 10.42 -1.06 C11.46 -0.69, 10.18 1.11, 10.08 1.65" stroke="#000000" stroke-width="0.5" fill="none"/></g><g stroke-linecap="round" transform="translate(377.8939208984375 116.921875) rotate(0 6.59197998046875 6.23883056640625)"><path d="M9.7 -0.17 C10.64 0.24, 11.24 2.06, 11.73 3.45 C12.22 4.84, 13.07 6.68, 12.64 8.16 C12.21 9.63, 10.49 11.64, 9.16 12.31 C7.84 12.98, 6.02 12.53, 4.7 12.15 C3.37 11.77, 1.86 11.04, 1.2 10.03 C0.54 9.03, 0.75 7.55, 0.73 6.11 C0.71 4.67, 0.21 2.35, 1.07 1.4 C1.92 0.46, 4.37 0.65, 5.85 0.45 C7.32 0.24, 9.24 0.08, 9.91 0.17 C10.58 0.27, 9.81 0.87, 9.87 1.02 M6.87 0.34 C7.9 0.05, 7.85 -0.63, 9.06 -0.13 C10.27 0.37, 13.6 1.68, 14.11 3.35 C14.62 5.02, 12.64 8.34, 12.13 9.88 C11.61 11.42, 12.09 12.19, 11.02 12.6 C9.95 13.02, 7.43 12.77, 5.71 12.38 C3.99 11.99, 1.76 11.43, 0.71 10.24 C-0.34 9.05, -0.89 6.84, -0.61 5.25 C-0.33 3.66, 1.19 1.41, 2.4 0.72 C3.6 0.04, 5.94 1.39, 6.6 1.12 C7.27 0.84, 6.56 -0.77, 6.4 -0.94" stroke="none" stroke-width="0" fill="#82c91e"/><path d="M6.11 1 C7.44 1.04, 8.69 0.89, 9.96 1.37 C11.23 1.86, 13.43 2.55, 13.73 3.93 C14.03 5.31, 12.53 8.19, 11.76 9.65 C10.99 11.11, 10.42 12.17, 9.11 12.69 C7.8 13.21, 5.24 13.33, 3.91 12.77 C2.59 12.21, 1.78 10.61, 1.16 9.33 C0.54 8.04, -0.02 6.47, 0.2 5.05 C0.42 3.64, 1.43 1.62, 2.48 0.84 C3.54 0.06, 5.54 0.56, 6.53 0.36 C7.52 0.16, 8.38 -0.52, 8.42 -0.35 M6.4 -0.79 C7.68 -0.88, 9.15 0.76, 10.4 1.61 C11.66 2.46, 13.38 2.86, 13.93 4.31 C14.48 5.77, 14.48 9.25, 13.71 10.34 C12.94 11.44, 10.72 10.78, 9.32 10.89 C7.91 10.99, 6.73 11.15, 5.28 10.97 C3.82 10.8, 1.63 10.88, 0.58 9.84 C-0.47 8.79, -1.17 5.85, -1.05 4.72 C-0.92 3.58, 0.34 3.61, 1.33 3.01 C2.32 2.41, 3.86 1.43, 4.88 1.13 C5.91 0.82, 7.03 1.19, 7.48 1.19" stroke="#000000" stroke-width="0.5" fill="none"/></g><g stroke-linecap="round" transform="translate(327.8939208984375 145.921875) rotate(0 6.59197998046875 6.23883056640625)"><path d="M8.07 -0.55 C9.24 -0.21, 11.09 1.83, 11.92 3.01 C12.75 4.19, 13.12 5.34, 13.05 6.52 C12.98 7.71, 12.65 9.21, 11.51 10.12 C10.37 11.03, 7.8 11.72, 6.19 11.98 C4.59 12.24, 2.95 12.51, 1.87 11.66 C0.79 10.81, 0.05 8.2, -0.27 6.87 C-0.59 5.53, -0.89 4.78, -0.04 3.64 C0.8 2.5, 3.23 0.6, 4.77 0.02 C6.32 -0.55, 8.27 -0.18, 9.23 0.17 C10.18 0.53, 10.52 2, 10.52 2.18 M8.24 -0.98 C9.51 -0.78, 10 2.46, 10.64 3.6 C11.29 4.75, 11.78 4.53, 12.12 5.9 C12.47 7.27, 13.35 10.64, 12.71 11.83 C12.08 13.01, 9.92 13.16, 8.33 13.01 C6.74 12.86, 4.47 11.82, 3.17 10.92 C1.88 10.01, 1.13 8.63, 0.57 7.57 C0.01 6.5, -0.47 5.55, -0.2 4.55 C0.08 3.55, 0.68 2.2, 2.22 1.56 C3.75 0.92, 8.25 0.99, 9.02 0.73 C9.78 0.47, 7.1 0.09, 6.81 0.03" stroke="none" stroke-width="0" fill="#82c91e"/><path d="M5.56 -0.32 C6.99 -0.64, 8.18 0.67, 9.17 1.16 C10.16 1.65, 10.75 1.56, 11.48 2.62 C12.22 3.68, 13.62 6.21, 13.59 7.51 C13.57 8.81, 12.45 9.59, 11.34 10.43 C10.23 11.28, 8.5 12.48, 6.92 12.58 C5.35 12.68, 3.1 11.87, 1.89 11.02 C0.68 10.16, -0.05 8.89, -0.33 7.46 C-0.62 6.04, -0.8 3.56, 0.19 2.46 C1.18 1.36, 4.74 1.27, 5.62 0.85 C6.49 0.44, 5.35 -0.01, 5.44 -0.04 M5.94 -0.26 C7.31 -0.16, 10.13 1.29, 11.22 2.43 C12.31 3.57, 12.11 5.37, 12.47 6.59 C12.83 7.81, 14.21 8.69, 13.4 9.74 C12.58 10.79, 9.31 12.56, 7.57 12.88 C5.84 13.19, 4.09 12.43, 3.01 11.64 C1.93 10.85, 1.7 9.38, 1.11 8.13 C0.53 6.89, -0.98 5.54, -0.52 4.16 C-0.06 2.79, 2.48 0.4, 3.88 -0.11 C5.27 -0.62, 7.2 0.86, 7.85 1.11 C8.51 1.35, 7.9 1.32, 7.79 1.33" stroke="#000000" stroke-width="0.5" fill="none"/></g><g stroke-linecap="round" transform="translate(245.85467529296875 188.78111267089844) rotate(0 6.59197998046875 6.23883056640625)"><path d="M6.36 -0.41 C7.66 -0.2, 10.17 0.76, 11.15 1.93 C12.13 3.11, 12.29 5.34, 12.25 6.63 C12.21 7.92, 11.68 8.8, 10.92 9.68 C10.15 10.56, 8.73 11.62, 7.64 11.92 C6.55 12.22, 5.62 12.17, 4.38 11.47 C3.14 10.78, 0.8 8.85, 0.22 7.74 C-0.36 6.62, 0.5 6.04, 0.9 4.78 C1.3 3.52, 1.37 0.97, 2.64 0.18 C3.9 -0.6, 7.05 -0.08, 8.5 0.08 C9.94 0.24, 11.25 0.9, 11.29 1.14 M3.81 -0.93 C5.11 -1.55, 9.26 -1.42, 10.63 -0.46 C12 0.51, 11.42 3.32, 12.05 4.85 C12.67 6.37, 14.56 7.6, 14.37 8.7 C14.19 9.79, 12.44 10.76, 10.93 11.43 C9.43 12.1, 6.97 12.94, 5.36 12.69 C3.75 12.45, 2.07 11.16, 1.29 9.95 C0.5 8.75, 0.53 6.52, 0.65 5.48 C0.78 4.44, 1.23 4.77, 2.04 3.7 C2.85 2.64, 5.07 -0.25, 5.52 -0.91 C5.97 -1.56, 4.87 -0.75, 4.73 -0.23" stroke="none" stroke-width="0" fill="#fab005"/><path d="M2.85 0.84 C4.14 -0.15, 7.27 -1.15, 8.64 -0.8 C10.01 -0.45, 10.33 1.61, 11.08 2.93 C11.83 4.26, 13.2 5.79, 13.15 7.13 C13.1 8.47, 11.7 10.14, 10.78 10.97 C9.86 11.8, 8.89 12.1, 7.64 12.13 C6.39 12.15, 4.42 11.94, 3.27 11.14 C2.11 10.35, 1.24 8.52, 0.7 7.37 C0.15 6.23, -0.65 5.5, 0.01 4.27 C0.66 3.04, 3.93 0.48, 4.63 -0.02 C5.33 -0.53, 4.28 1.04, 4.2 1.24 M6.56 0.29 C8.05 0.28, 10.58 -0.08, 11.89 0.96 C13.2 2.01, 14.33 5.3, 14.42 6.54 C14.52 7.77, 13.29 7.66, 12.45 8.4 C11.61 9.14, 10.82 10.32, 9.36 10.97 C7.91 11.63, 5.33 12.73, 3.71 12.32 C2.09 11.92, 0.4 9.52, -0.34 8.52 C-1.08 7.53, -0.95 7.37, -0.72 6.36 C-0.49 5.35, -0.4 3.33, 1.04 2.45 C2.48 1.57, 6.76 1.37, 7.92 1.07 C9.09 0.77, 8.12 0.86, 8.02 0.65" stroke="#000000" stroke-width="0.5" fill="none"/></g><g stroke-linecap="round" transform="translate(327.8939208984375 216.921875) rotate(0 6.59197998046875 6.23883056640625)"><path d="M6.19 -0.22 C7.68 -0.28, 9.58 -0.17, 10.86 0.57 C12.14 1.31, 13.68 2.83, 13.87 4.22 C14.07 5.61, 12.92 7.47, 12.01 8.9 C11.1 10.34, 9.76 12.37, 8.42 12.84 C7.07 13.32, 5.37 12.24, 3.94 11.76 C2.51 11.27, 0.45 11.11, -0.14 9.95 C-0.72 8.79, 0.14 6.35, 0.42 4.8 C0.7 3.25, 0.35 1.36, 1.54 0.66 C2.73 -0.05, 6.35 0.61, 7.56 0.57 C8.76 0.53, 8.64 0.49, 8.76 0.43 M7.79 1.62 C8.85 2.09, 10.2 1.45, 11.28 2.65 C12.37 3.85, 14.23 7.32, 14.28 8.82 C14.33 10.33, 12.86 11.15, 11.57 11.66 C10.29 12.16, 8.08 12.07, 6.57 11.86 C5.06 11.64, 3.73 11.01, 2.54 10.35 C1.34 9.69, -0.1 8.95, -0.58 7.88 C-1.06 6.8, -1.35 5.03, -0.34 3.88 C0.67 2.72, 4.13 1.57, 5.48 0.95 C6.84 0.33, 7.34 0.31, 7.81 0.17 C8.29 0.03, 7.94 0.14, 8.33 0.1" stroke="none" stroke-width="0" fill="#82c91e"/><path d="M6.14 0.73 C7.15 0.53, 8.22 -0.2, 9.45 0.44 C10.68 1.09, 12.89 3.32, 13.52 4.61 C14.15 5.9, 13.85 6.93, 13.26 8.17 C12.66 9.4, 11.38 11.3, 9.93 12.01 C8.49 12.72, 6.1 12.71, 4.58 12.41 C3.05 12.1, 1.68 11.37, 0.78 10.17 C-0.11 8.97, -1.04 6.49, -0.79 5.21 C-0.54 3.94, 1.21 3.44, 2.29 2.54 C3.37 1.64, 4.88 0.23, 5.71 -0.19 C6.54 -0.6, 7.15 -0.09, 7.26 0.06 M6.93 0.89 C8.3 1.08, 9.01 2.03, 10.23 2.8 C11.45 3.56, 14.11 4.25, 14.26 5.47 C14.41 6.69, 12.24 9.1, 11.13 10.13 C10.02 11.17, 8.69 11.56, 7.6 11.7 C6.51 11.84, 5.82 11.51, 4.59 10.97 C3.36 10.43, 0.72 9.68, 0.21 8.45 C-0.3 7.23, 0.97 4.6, 1.52 3.62 C2.08 2.63, 2.49 2.93, 3.52 2.53 C4.55 2.13, 7.1 1.52, 7.71 1.21 C8.32 0.89, 7.48 0.51, 7.17 0.65" stroke="#000000" stroke-width="0.5" fill="none"/></g><g stroke-linecap="round" transform="translate(306.8939208984375 286.921875) rotate(0 6.59197998046875 6.23883056640625)"><path d="M3.5 0.62 C4.68 0.2, 6.04 0.69, 7.28 0.97 C8.52 1.26, 10.06 1.43, 10.96 2.32 C11.85 3.21, 12.49 4.99, 12.67 6.31 C12.85 7.63, 13 9.38, 12.04 10.23 C11.09 11.09, 8.35 11.2, 6.93 11.45 C5.51 11.7, 4.69 12.44, 3.52 11.71 C2.36 10.98, 0.56 8.5, -0.06 7.08 C-0.68 5.67, -1.05 4.45, -0.2 3.22 C0.66 2, 4.15 0.19, 5.08 -0.24 C6.02 -0.68, 5.54 0.3, 5.41 0.6 M8.46 -1.03 C9.9 -0.59, 9.75 1.82, 10.77 3.09 C11.79 4.35, 14.29 5.43, 14.59 6.57 C14.89 7.71, 13.71 8.94, 12.54 9.93 C11.38 10.93, 9.18 12.32, 7.61 12.53 C6.04 12.74, 4.19 12.02, 3.12 11.19 C2.06 10.36, 1.56 8.48, 1.22 7.55 C0.87 6.62, 0.69 6.89, 1.07 5.63 C1.44 4.37, 2.48 1, 3.47 -0.02 C4.46 -1.05, 6.45 -0.79, 7.01 -0.52 C7.57 -0.25, 6.96 1.61, 6.81 1.6" stroke="none" stroke-width="0" fill="#82c91e"/><path d="M10.44 -0.18 C11.64 0.43, 11.63 2.99, 12.03 4.5 C12.42 6.02, 13.26 7.64, 12.81 8.91 C12.36 10.18, 10.5 11.59, 9.32 12.13 C8.14 12.66, 6.99 12.48, 5.73 12.12 C4.48 11.76, 2.7 11.07, 1.81 9.98 C0.91 8.89, 0.51 6.8, 0.37 5.59 C0.23 4.38, 0.03 3.71, 0.97 2.71 C1.9 1.7, 4.5 -0.28, 6 -0.44 C7.5 -0.6, 9.24 1.44, 9.99 1.75 C10.73 2.07, 10.47 1.47, 10.46 1.43 M5.75 -0.42 C7.29 -0.68, 9.48 1.27, 10.66 1.74 C11.84 2.22, 12.32 1.63, 12.82 2.44 C13.33 3.26, 14.17 5.1, 13.7 6.63 C13.22 8.17, 11.44 10.77, 9.98 11.64 C8.51 12.5, 6.41 11.74, 4.93 11.81 C3.45 11.88, 2.15 12.73, 1.09 12.08 C0.02 11.43, -1.66 9.32, -1.46 7.93 C-1.26 6.54, 1.03 4.94, 2.28 3.74 C3.54 2.55, 5.55 1.44, 6.07 0.74 C6.59 0.05, 5.36 -0.63, 5.43 -0.43" stroke="#000000" stroke-width="0.5" fill="none"/></g><g stroke-linecap="round" transform="translate(258.8939208984375 294.921875) rotate(0 6.59197998046875 6.23883056640625)"><path d="M3.5 -0.2 C4.85 -0.99, 7.42 -1.19, 8.76 -0.84 C10.1 -0.49, 10.86 0.57, 11.53 1.91 C12.2 3.25, 12.86 5.83, 12.8 7.19 C12.73 8.56, 12.18 9.12, 11.13 10.09 C10.08 11.07, 7.79 12.86, 6.5 13.05 C5.21 13.24, 4.57 12.16, 3.4 11.21 C2.22 10.27, 0.02 8.53, -0.54 7.38 C-1.1 6.23, -0.61 5.49, 0.02 4.32 C0.66 3.14, 2.51 1.06, 3.26 0.35 C4.01 -0.35, 4.26 -0.08, 4.51 0.09 M3.14 -0.11 C4.75 -0.61, 8.27 1.14, 9.92 1.75 C11.57 2.37, 12.49 2.79, 13.03 3.59 C13.57 4.39, 13.48 5.44, 13.17 6.56 C12.86 7.68, 12.37 9.22, 11.19 10.31 C10 11.4, 7.74 12.83, 6.07 13.1 C4.41 13.38, 2.02 12.77, 1.21 11.93 C0.39 11.09, 1.45 9.55, 1.2 8.06 C0.95 6.57, -0.71 4.36, -0.3 3.01 C0.11 1.67, 2.65 0.6, 3.65 0.01 C4.64 -0.57, 5.76 -0.62, 5.69 -0.49" stroke="none" stroke-width="0" fill="#82c91e"/><path d="M3.64 -0.39 C4.96 -0.98, 8.05 -0.07, 9.63 0.43 C11.21 0.93, 12.45 1.39, 13.12 2.6 C13.78 3.8, 14.07 6.21, 13.61 7.66 C13.15 9.11, 11.63 10.45, 10.35 11.31 C9.07 12.17, 7.45 12.99, 5.95 12.84 C4.45 12.69, 2.28 11.24, 1.35 10.4 C0.43 9.57, 0.56 9.1, 0.41 7.82 C0.26 6.54, -0.62 4.04, 0.44 2.73 C1.51 1.42, 5.59 0.37, 6.78 -0.04 C7.96 -0.46, 7.65 0.23, 7.54 0.25 M5.39 1.33 C6.87 1.04, 10.48 0.73, 11.55 1.4 C12.62 2.08, 11.85 4.19, 11.82 5.37 C11.79 6.55, 11.72 7.57, 11.36 8.47 C11 9.37, 10.85 10.3, 9.67 10.79 C8.48 11.27, 5.41 11.81, 4.23 11.4 C3.05 10.99, 3.11 9.09, 2.6 8.32 C2.09 7.55, 1.08 7.67, 1.15 6.79 C1.22 5.91, 2.1 4.06, 3 3.03 C3.91 1.99, 6.18 0.79, 6.55 0.55 C6.93 0.32, 5.17 1.54, 5.27 1.61" stroke="#000000" stroke-width="0.5" fill="none"/></g><g stroke-linecap="round" transform="translate(241.9539794921875 258.921875) rotate(0 6.59197998046875 6.23883056640625)"><path d="M4.2 0.94 C5.37 0.54, 7.29 0.01, 8.62 0.42 C9.95 0.84, 11.34 2.22, 12.17 3.43 C13 4.65, 14 6.55, 13.61 7.73 C13.23 8.9, 11.04 9.65, 9.84 10.48 C8.64 11.32, 7.8 12.88, 6.4 12.74 C5 12.59, 2.64 10.73, 1.45 9.62 C0.25 8.52, -0.82 7.37, -0.76 6.09 C-0.71 4.81, 0.78 2.88, 1.76 1.95 C2.74 1.03, 4.56 0.7, 5.11 0.52 C5.67 0.35, 5.01 1.01, 5.11 0.92 M3.63 1.65 C4.88 1.42, 8.57 0.9, 10.1 1.13 C11.62 1.35, 12.4 1.98, 12.8 3.03 C13.2 4.07, 12.9 6.19, 12.49 7.39 C12.09 8.59, 11.2 9.6, 10.35 10.23 C9.51 10.87, 8.58 10.88, 7.41 11.21 C6.24 11.54, 4.43 13, 3.32 12.2 C2.21 11.4, 1.19 7.97, 0.73 6.39 C0.27 4.81, 0.06 3.47, 0.56 2.72 C1.07 1.97, 3.31 2.45, 3.75 1.88 C4.18 1.31, 3.11 -0.41, 3.18 -0.68" stroke="none" stroke-width="0" fill="#82c91e"/><path d="M6.24 0.56 C7.46 0.82, 10.02 1.46, 11.05 2.37 C12.08 3.28, 12.21 4.88, 12.41 6.04 C12.61 7.21, 12.86 8.38, 12.23 9.34 C11.61 10.3, 9.98 11.5, 8.67 11.81 C7.37 12.11, 5.79 11.56, 4.39 11.17 C2.99 10.77, 0.84 10.57, 0.26 9.42 C-0.32 8.27, 0.53 5.51, 0.9 4.28 C1.26 3.04, 1.33 2.7, 2.43 2.01 C3.52 1.32, 6.52 0.39, 7.48 0.11 C8.44 -0.17, 8.28 0.25, 8.19 0.31 M8.52 1.19 C9.76 1.15, 10.66 0.16, 11.55 0.72 C12.45 1.27, 13.9 2.97, 13.9 4.54 C13.89 6.11, 12.68 8.97, 11.55 10.15 C10.42 11.33, 8.58 11.11, 7.14 11.63 C5.7 12.15, 4.24 13.57, 2.9 13.29 C1.56 13.01, -0.63 11.23, -0.89 9.96 C-1.15 8.68, 0.52 7.04, 1.34 5.65 C2.17 4.26, 2.99 2.69, 4.05 1.63 C5.12 0.56, 6.97 -0.68, 7.74 -0.74 C8.51 -0.8, 8.71 1.02, 8.66 1.26" stroke="#000000" stroke-width="0.5" fill="none"/></g><g stroke-linecap="round" transform="translate(404.33172607421875 221.50152587890625) rotate(0 6.59197998046875 6.23883056640625)"><path d="M5.59 -0.26 C7 -0.54, 8.95 0.22, 10.31 1.06 C11.68 1.9, 13.53 3.57, 13.8 4.78 C14.08 6, 12.7 7.07, 11.98 8.34 C11.27 9.61, 10.82 11.92, 9.5 12.4 C8.18 12.89, 5.61 11.83, 4.05 11.25 C2.49 10.67, 0.71 10.02, 0.12 8.92 C-0.47 7.82, 0.19 5.83, 0.52 4.66 C0.85 3.49, 1.06 2.54, 2.09 1.89 C3.12 1.24, 5.71 1.15, 6.7 0.75 C7.69 0.35, 8.08 -0.62, 8.03 -0.51 M5.74 1.19 C7.16 0.49, 8.43 0.07, 9.42 0.43 C10.41 0.79, 11.16 2.31, 11.67 3.35 C12.18 4.38, 12.5 5.57, 12.47 6.63 C12.44 7.7, 12.31 8.59, 11.47 9.74 C10.63 10.89, 8.85 13.52, 7.43 13.55 C6.02 13.58, 4.23 11.05, 2.97 9.92 C1.71 8.8, 0.29 7.68, -0.13 6.79 C-0.54 5.9, -0.11 5.85, 0.46 4.58 C1.03 3.3, 2.67 -0.05, 3.28 -0.86 C3.89 -1.66, 3.91 -0.8, 4.13 -0.26" stroke="none" stroke-width="0" fill="#82c91e"/><path d="M3.59 1.37 C4.75 0.73, 5.98 0.6, 7.38 0.74 C8.77 0.88, 10.99 1.31, 11.98 2.22 C12.97 3.13, 13.36 4.95, 13.32 6.19 C13.28 7.44, 12.83 8.6, 11.76 9.7 C10.69 10.79, 8.25 12.58, 6.91 12.78 C5.56 12.98, 4.84 11.56, 3.71 10.89 C2.57 10.23, 0.63 9.97, 0.09 8.79 C-0.45 7.61, -0.36 5.25, 0.47 3.82 C1.3 2.39, 4.16 0.85, 5.06 0.2 C5.97 -0.44, 5.87 -0.24, 5.92 -0.04 M5.47 -1 C6.67 -1.74, 9.27 -1.34, 10.4 -0.48 C11.54 0.39, 12.06 2.85, 12.28 4.18 C12.51 5.52, 12.26 6.05, 11.76 7.51 C11.25 8.96, 10.5 11.93, 9.24 12.94 C7.98 13.94, 5.27 13.78, 4.2 13.54 C3.13 13.3, 3.31 12.58, 2.81 11.49 C2.31 10.4, 1.36 8.64, 1.21 7 C1.06 5.36, 1.01 2.6, 1.91 1.64 C2.82 0.68, 6.06 1.47, 6.67 1.25 C7.28 1.02, 6.01 0.61, 5.57 0.28" stroke="#000000" stroke-width="0.5" fill="none"/></g><g stroke-linecap="round" transform="translate(403.8939208984375 164.921875) rotate(0 6.59197998046875 6.23883056640625)"><path d="M3.39 0.16 C4.36 -0.2, 6.4 0.56, 7.75 0.9 C9.11 1.24, 10.81 1.14, 11.54 2.2 C12.28 3.26, 12.15 5.92, 12.18 7.26 C12.2 8.59, 12.63 9.49, 11.68 10.23 C10.73 10.96, 8.01 11.39, 6.47 11.67 C4.94 11.94, 3.61 12.51, 2.49 11.86 C1.37 11.21, 0.01 9.2, -0.25 7.76 C-0.5 6.32, 0.06 4.44, 0.96 3.23 C1.86 2.03, 4.56 1.16, 5.15 0.54 C5.75 -0.08, 4.47 -0.45, 4.52 -0.5 M6.23 0.69 C7.34 0.05, 8.79 -0.26, 9.92 0.2 C11.05 0.66, 12.65 2, 13.02 3.46 C13.39 4.92, 12.86 7.48, 12.13 8.98 C11.4 10.47, 9.58 11.78, 8.65 12.45 C7.72 13.12, 7.91 13.39, 6.55 12.99 C5.18 12.58, 1.64 11.23, 0.45 10.04 C-0.73 8.85, -0.97 7.32, -0.55 5.85 C-0.13 4.38, 2.18 2.21, 2.96 1.22 C3.75 0.22, 3.89 0.03, 4.18 -0.14 C4.47 -0.3, 4.22 0.23, 4.69 0.24" stroke="none" stroke-width="0" fill="#82c91e"/><path d="M5.05 -0.35 C6.28 -0.84, 8.27 -0.12, 9.43 0.49 C10.59 1.09, 11.48 2.07, 12.02 3.28 C12.56 4.48, 13.02 6.48, 12.68 7.7 C12.35 8.91, 10.96 9.64, 10 10.56 C9.04 11.48, 8.3 13.16, 6.93 13.21 C5.56 13.25, 2.79 11.81, 1.78 10.82 C0.77 9.82, 0.99 8.52, 0.85 7.24 C0.71 5.97, 0.3 4.43, 0.93 3.18 C1.56 1.93, 4 0.2, 4.64 -0.25 C5.28 -0.69, 4.64 0.4, 4.77 0.52 M8.23 1.31 C9.09 1.66, 10.52 2.27, 11.36 3.18 C12.2 4.08, 13.53 5.52, 13.26 6.73 C12.99 7.95, 10.71 9.78, 9.74 10.48 C8.77 11.19, 8.55 10.75, 7.44 10.96 C6.33 11.18, 4.12 12.26, 3.06 11.76 C2 11.27, 1.32 9.42, 1.09 8 C0.87 6.57, 1.21 4.25, 1.71 3.2 C2.21 2.14, 2.65 2.06, 4.11 1.68 C5.57 1.3, 9.61 1.31, 10.48 0.92 C11.35 0.53, 9.81 -0.59, 9.34 -0.66" stroke="#000000" stroke-width="0.5" fill="none"/></g><g stroke-linecap="round" transform="translate(367.8939208984375 208.921875) rotate(0 6.59197998046875 6.23883056640625)"><path d="M8.61 0.09 C10.17 0.49, 12.48 1.92, 13.16 3 C13.84 4.08, 13.02 5.17, 12.7 6.58 C12.38 8, 12.36 10.65, 11.24 11.49 C10.13 12.33, 7.65 11.8, 6 11.62 C4.36 11.43, 2.29 11.23, 1.37 10.38 C0.45 9.54, 0.58 7.72, 0.48 6.54 C0.38 5.37, 0.18 4.23, 0.78 3.31 C1.38 2.39, 2.63 1.59, 4.09 1.01 C5.55 0.44, 8.78 -0.27, 9.56 -0.16 C10.35 -0.06, 9 1.46, 8.8 1.62 M9.77 0.56 C10.7 0.89, 11.42 2.59, 11.85 3.66 C12.29 4.74, 12.51 5.94, 12.39 6.99 C12.28 8.04, 12.07 8.87, 11.18 9.97 C10.28 11.06, 8.47 13.59, 7.05 13.54 C5.64 13.49, 3.89 10.87, 2.68 9.68 C1.48 8.5, 0.16 7.33, -0.18 6.43 C-0.52 5.53, 0.02 5.5, 0.66 4.27 C1.3 3.04, 2.26 -0.22, 3.65 -0.97 C5.03 -1.73, 8.03 -0.76, 8.95 -0.25 C9.86 0.25, 9.29 1.61, 9.15 2.04" stroke="none" stroke-width="0" fill="#82c91e"/><path d="M7.67 0.81 C9.01 0.92, 11.22 1.51, 12.16 2.45 C13.1 3.4, 13.4 5.24, 13.3 6.48 C13.19 7.72, 12.66 8.85, 11.55 9.9 C10.43 10.96, 7.95 12.67, 6.6 12.81 C5.25 12.94, 4.55 11.44, 3.45 10.73 C2.36 10.01, 0.48 9.7, 0 8.51 C-0.47 7.31, -0.07 4.88, 0.6 3.56 C1.26 2.23, 2.7 1.12, 3.97 0.56 C5.24 -0.01, 7.33 0.07, 8.19 0.16 C9.06 0.26, 9.2 0.88, 9.19 1.16 M9.82 -0.73 C10.98 -0.09, 11.66 2.36, 12.01 3.64 C12.36 4.91, 12.3 5.43, 11.92 6.92 C11.55 8.41, 10.94 11.48, 9.76 12.59 C8.58 13.7, 5.92 13.71, 4.84 13.6 C3.75 13.48, 3.86 12.92, 3.26 11.92 C2.66 10.92, 1.55 9.23, 1.27 7.6 C0.98 5.97, 0.75 3.17, 1.55 2.14 C2.35 1.11, 4.74 1.68, 6.05 1.4 C7.36 1.13, 9.16 0.87, 9.43 0.49 C9.7 0.11, 7.9 -0.92, 7.69 -0.88" stroke="#000000" stroke-width="0.5" fill="none"/></g><g stroke-linecap="round" transform="translate(356.8939208984375 252.6864013671875) rotate(0 6.59197998046875 6.23883056640625)"><path d="M3.11 1.46 C4.24 0.82, 6.32 -0.46, 7.6 -0.2 C8.88 0.06, 9.8 1.97, 10.78 3.02 C11.77 4.08, 13.51 5.03, 13.49 6.14 C13.47 7.24, 11.71 8.52, 10.64 9.63 C9.57 10.75, 8.4 12.56, 7.06 12.84 C5.72 13.12, 3.64 12.15, 2.59 11.29 C1.54 10.43, 0.97 8.86, 0.74 7.66 C0.51 6.47, 0.73 5.45, 1.2 4.11 C1.67 2.77, 2.76 0.39, 3.56 -0.37 C4.36 -1.12, 5.9 -0.79, 6 -0.43 M9.67 0.07 C10.8 0.38, 12.49 1.77, 12.91 3.21 C13.34 4.65, 12.89 7.2, 12.22 8.72 C11.55 10.23, 9.79 11.59, 8.9 12.31 C8 13.03, 8.21 13.37, 6.83 13.03 C5.46 12.68, 1.87 11.4, 0.64 10.25 C-0.59 9.1, -0.9 7.6, -0.54 6.13 C-0.19 4.66, 2.04 2.46, 2.78 1.43 C3.52 0.4, 2.88 0.04, 3.89 -0.08 C4.91 -0.2, 7.67 0.7, 8.85 0.71 C10.03 0.72, 10.68 -0.17, 10.97 -0.01" stroke="none" stroke-width="0" fill="#82c91e"/><path d="M7.06 0.11 C8.23 0.15, 9.52 0.66, 10.46 1.54 C11.39 2.43, 12.49 4.21, 12.67 5.42 C12.85 6.63, 12.1 7.58, 11.54 8.81 C10.97 10.03, 10.57 12.27, 9.29 12.79 C8.02 13.32, 5.14 12.51, 3.87 11.94 C2.61 11.37, 2.31 10.48, 1.69 9.38 C1.06 8.28, 0.02 6.72, 0.12 5.33 C0.22 3.93, 1.1 1.84, 2.29 1 C3.47 0.15, 6.14 0.42, 7.24 0.24 C8.34 0.06, 8.72 -0.29, 8.88 -0.08 M5.98 -0.39 C7.56 -0.66, 10.47 -0.15, 11.56 0.72 C12.65 1.6, 12.21 3.58, 12.51 4.85 C12.82 6.11, 13.92 6.91, 13.4 8.34 C12.88 9.76, 10.83 12.58, 9.41 13.37 C7.99 14.16, 6.24 13.76, 4.86 13.09 C3.48 12.43, 2.04 10.56, 1.14 9.39 C0.24 8.22, -1.01 7.4, -0.54 6.08 C-0.08 4.75, 2.64 2.69, 3.93 1.46 C5.22 0.22, 6.9 -1, 7.2 -1.33 C7.5 -1.66, 5.78 -0.85, 5.71 -0.52" stroke="#000000" stroke-width="0.5" fill="none"/></g><g stroke-linecap="round" transform="translate(302.8939208984375 258.921875) rotate(0 6.59197998046875 6.23883056640625)"><path d="M6.45 -0.3 C7.79 -0.65, 8.62 -0.85, 9.8 -0.02 C10.97 0.8, 13.08 3.37, 13.51 4.66 C13.94 5.96, 13.15 6.65, 12.38 7.76 C11.6 8.87, 10 10.63, 8.87 11.31 C7.74 11.98, 6.89 11.96, 5.6 11.81 C4.31 11.67, 2.14 11.31, 1.12 10.46 C0.1 9.61, -0.64 8.23, -0.51 6.7 C-0.37 5.17, 0.97 2.26, 1.92 1.29 C2.88 0.31, 4.61 1.09, 5.21 0.84 C5.81 0.59, 5.25 -0.35, 5.52 -0.22 M7.72 0.47 C8.84 0.61, 10.39 1.18, 11.4 2.03 C12.41 2.88, 13.68 3.94, 13.78 5.56 C13.89 7.18, 13.05 10.79, 12.04 11.75 C11.03 12.72, 9.3 11.51, 7.72 11.35 C6.13 11.19, 3.86 11.12, 2.54 10.77 C1.22 10.42, 0.29 10.66, -0.2 9.25 C-0.69 7.84, -1.03 3.9, -0.4 2.32 C0.24 0.75, 2.15 -0.08, 3.61 -0.19 C5.07 -0.3, 7.71 1.35, 8.36 1.65 C9.01 1.95, 7.46 1.93, 7.49 1.63" stroke="none" stroke-width="0" fill="#82c91e"/><path d="M8.95 0.09 C10.39 0.28, 11.7 1.65, 12.45 2.72 C13.2 3.79, 13.8 5.06, 13.45 6.5 C13.1 7.94, 11.39 10.46, 10.37 11.36 C9.35 12.26, 8.69 11.84, 7.32 11.91 C5.96 11.98, 3.38 12.53, 2.16 11.77 C0.95 11.01, 0.24 8.81, 0.03 7.37 C-0.17 5.93, 0.32 4.33, 0.95 3.14 C1.58 1.94, 2.29 0.5, 3.8 0.21 C5.32 -0.08, 8.95 1.04, 10.02 1.4 C11.08 1.75, 10.17 2.32, 10.22 2.34 M3.73 0.74 C4.64 0.29, 6.27 -0.94, 7.54 -0.33 C8.81 0.27, 10.65 2.94, 11.33 4.37 C12.01 5.8, 11.5 6.99, 11.63 8.25 C11.75 9.52, 12.69 11.16, 12.09 11.96 C11.48 12.75, 9.51 13.26, 8 13 C6.5 12.74, 4.11 11.1, 3.04 10.37 C1.98 9.64, 1.92 9.8, 1.6 8.62 C1.28 7.44, 0.92 4.92, 1.12 3.31 C1.32 1.71, 2.39 -0.5, 2.79 -1.01 C3.19 -1.53, 3.26 0.12, 3.52 0.23" stroke="#000000" stroke-width="0.5" fill="none"/></g><g stroke-linecap="round" transform="translate(266.8939208984375 311.921875) rotate(0 6.59197998046875 6.23883056640625)"><path d="M4.62 -0.14 C5.8 -0.54, 7.08 0.67, 8.46 1.25 C9.85 1.84, 12.31 2.38, 12.91 3.37 C13.52 4.35, 12.59 5.75, 12.08 7.16 C11.57 8.57, 10.95 10.98, 9.84 11.82 C8.73 12.66, 6.67 12.49, 5.41 12.2 C4.15 11.91, 3.06 10.96, 2.28 10.08 C1.5 9.19, 1.04 8.27, 0.74 6.89 C0.44 5.52, -0.42 3.09, 0.5 1.84 C1.42 0.59, 5.42 -0.46, 6.26 -0.61 C7.11 -0.76, 5.55 0.65, 5.59 0.96 M8.13 -0.5 C9.34 -0.12, 10.44 1.68, 11.07 2.97 C11.7 4.25, 11.66 5.87, 11.92 7.2 C12.18 8.53, 13.52 10.13, 12.61 10.96 C11.71 11.78, 8.15 12.14, 6.48 12.18 C4.81 12.21, 3.4 11.98, 2.62 11.15 C1.83 10.33, 2.36 8.44, 1.79 7.2 C1.22 5.97, -0.94 4.81, -0.79 3.74 C-0.64 2.67, 0.99 1.52, 2.67 0.78 C4.35 0.04, 8.23 -0.67, 9.31 -0.69 C10.39 -0.72, 9.57 0.29, 9.14 0.66" stroke="none" stroke-width="0" fill="#82c91e"/><path d="M3.96 0.55 C5.03 0.07, 7.12 0.38, 8.36 0.71 C9.61 1.05, 10.59 1.37, 11.44 2.58 C12.28 3.79, 13.63 6.6, 13.44 7.97 C13.26 9.33, 11.33 10.03, 10.33 10.77 C9.33 11.51, 8.74 12.35, 7.43 12.41 C6.12 12.47, 3.68 12.06, 2.47 11.14 C1.25 10.22, 0.43 8.17, 0.13 6.88 C-0.17 5.58, -0.34 4.59, 0.67 3.38 C1.68 2.18, 4.99 0.06, 6.18 -0.35 C7.37 -0.76, 7.88 0.87, 7.83 0.91 M8.48 -0.93 C9.9 -0.77, 10.26 0.69, 11.28 1.71 C12.3 2.73, 14.39 3.52, 14.58 5.18 C14.78 6.84, 13.5 10.26, 12.46 11.68 C11.42 13.09, 9.85 13.6, 8.35 13.65 C6.84 13.69, 4.91 12.64, 3.43 11.94 C1.96 11.24, -0.22 10.74, -0.51 9.42 C-0.8 8.11, 0.97 5.73, 1.68 4.04 C2.38 2.35, 2.88 0.03, 3.72 -0.72 C4.56 -1.48, 6.04 -0.66, 6.72 -0.49 C7.41 -0.32, 7.84 -0.11, 7.82 0.3" stroke="#000000" stroke-width="0.5" fill="none"/></g><g stroke-linecap="round" transform="translate(206.8939208984375 315.921875) rotate(0 6.59197998046875 6.23883056640625)"><path d="M5.01 -0.88 C6.29 -1.09, 9.18 0.42, 10.42 1.09 C11.66 1.76, 12.16 2.03, 12.44 3.15 C12.71 4.27, 12.39 6.49, 12.05 7.81 C11.71 9.13, 11.53 10.24, 10.41 11.07 C9.28 11.9, 6.86 12.82, 5.31 12.81 C3.76 12.81, 1.95 12.25, 1.1 11.05 C0.25 9.85, 0.26 6.92, 0.2 5.6 C0.13 4.28, -0.11 4.11, 0.72 3.12 C1.54 2.14, 4.08 0.02, 5.16 -0.32 C6.24 -0.66, 6.99 0.85, 7.21 1.08 M6.11 -0.67 C7.66 -0.97, 10.25 -0.89, 11.56 0.28 C12.86 1.45, 13.71 5, 13.93 6.35 C14.14 7.69, 13.74 7.48, 12.83 8.36 C11.93 9.23, 10 10.73, 8.49 11.59 C6.99 12.45, 5.25 14.1, 3.8 13.5 C2.35 12.9, 0.44 9.55, -0.22 8.01 C-0.87 6.47, -0.56 5.15, -0.11 4.28 C0.34 3.41, 1.47 3.31, 2.47 2.81 C3.48 2.31, 5.13 1.9, 5.91 1.28 C6.68 0.67, 6.87 -0.72, 7.13 -0.89" stroke="none" stroke-width="0" fill="#82c91e"/><path d="M8.6 -0.14 C9.95 0.05, 11.77 0.73, 12.45 1.97 C13.13 3.2, 12.78 5.91, 12.68 7.28 C12.58 8.65, 12.85 9.2, 11.87 10.19 C10.89 11.18, 8.36 13.03, 6.81 13.22 C5.27 13.4, 3.71 12.22, 2.62 11.3 C1.52 10.39, 0.66 9.06, 0.25 7.72 C-0.16 6.39, -0.49 4.4, 0.16 3.3 C0.8 2.19, 2.75 1.45, 4.14 1.11 C5.53 0.78, 7.5 1.31, 8.49 1.27 C9.48 1.23, 10.18 0.83, 10.08 0.87 M2.92 -0.15 C4.04 -0.54, 6.38 1, 7.67 1.69 C8.96 2.38, 9.54 2.91, 10.64 3.97 C11.73 5.04, 13.96 6.85, 14.24 8.08 C14.51 9.3, 13.42 10.73, 12.29 11.33 C11.15 11.94, 8.82 11.54, 7.45 11.7 C6.09 11.87, 5.24 13, 4.08 12.32 C2.92 11.65, 1.29 9.39, 0.5 7.65 C-0.28 5.92, -1.1 3.19, -0.63 1.94 C-0.15 0.69, 2.57 0.61, 3.35 0.16 C4.14 -0.29, 3.72 -0.68, 4.07 -0.78" stroke="#000000" stroke-width="0.5" fill="none"/></g><g stroke-linecap="round"><g transform="translate(75.47271728515625 280.031494140625) rotate(0 199.67086791992188 -0.483245849609375)"><path d="M0.18 -0.48 C66.79 -0.74, 333.35 -1.93, 399.78 -1.95" stroke="#000000" stroke-width="1" fill="none" stroke-dasharray="8 8.5"/></g></g><g stroke-linecap="round" transform="translate(239.53411865234375 273.29095458984375) rotate(0 6.59197998046875 6.23883056640625)"><path d="M9.09 0.46 C10.62 0.82, 12.02 1.6, 12.71 2.64 C13.4 3.68, 13.54 5.23, 13.24 6.68 C12.94 8.12, 11.97 10.23, 10.9 11.31 C9.83 12.39, 8.28 13.04, 6.82 13.18 C5.35 13.32, 3.16 12.98, 2.09 12.17 C1.03 11.36, 0.67 9.67, 0.43 8.34 C0.2 7, 0.13 5.5, 0.68 4.15 C1.23 2.8, 2.33 0.72, 3.73 0.24 C5.14 -0.23, 8.01 1.21, 9.11 1.3 C10.21 1.4, 10.44 0.92, 10.35 0.8 M7.21 0.14 C8.27 0.23, 8.78 1.38, 9.88 2.17 C10.98 2.96, 13.24 3.73, 13.79 4.9 C14.33 6.07, 13.79 7.82, 13.17 9.21 C12.55 10.61, 11.26 12.69, 10.09 13.26 C8.93 13.83, 7.41 13.29, 6.15 12.63 C4.9 11.98, 3.6 10.58, 2.56 9.32 C1.51 8.06, 0.15 6.1, -0.1 5.07 C-0.34 4.04, 0.11 3.87, 1.09 3.14 C2.07 2.41, 4.77 0.99, 5.77 0.68 C6.77 0.37, 7.2 1.05, 7.1 1.3" stroke="none" stroke-width="0" fill="#82c91e"/><path d="M4.63 1.14 C5.99 0.71, 8.19 0.7, 9.45 0.95 C10.7 1.19, 11.69 1.4, 12.18 2.61 C12.66 3.81, 12.68 6.79, 12.35 8.15 C12.01 9.51, 11.19 10.09, 10.19 10.76 C9.18 11.43, 7.57 12.3, 6.32 12.17 C5.07 12.04, 3.88 10.93, 2.7 9.97 C1.52 9.01, -0.38 7.65, -0.78 6.42 C-1.18 5.2, -0.63 3.7, 0.28 2.61 C1.19 1.53, 3.7 0.28, 4.69 -0.09 C5.68 -0.47, 6.1 0.12, 6.21 0.36 M4.1 0.16 C5.43 -0.17, 8.96 0.28, 10.3 0.58 C11.64 0.88, 11.59 0.56, 12.14 1.94 C12.69 3.32, 13.72 7.35, 13.59 8.85 C13.45 10.35, 12.32 10.24, 11.34 10.94 C10.36 11.64, 9.29 13, 7.71 13.05 C6.13 13.11, 2.87 12.2, 1.84 11.27 C0.82 10.34, 1.5 8.98, 1.55 7.48 C1.59 5.98, 1.61 3.61, 2.12 2.26 C2.64 0.9, 4.42 -0.45, 4.64 -0.68 C4.85 -0.91, 3.32 0.62, 3.41 0.87" stroke="#000000" stroke-width="0.5" fill="none"/></g><g stroke-linecap="round" transform="translate(164.9522705078125 273.80303955078125) rotate(0 6.59197998046875 6.23883056640625)"><path d="M7.38 0.32 C8.74 0.19, 9.69 0.32, 10.55 1.08 C11.42 1.84, 12.12 3.59, 12.56 4.87 C12.99 6.16, 13.61 7.58, 13.16 8.79 C12.71 10.01, 11.35 11.47, 9.86 12.15 C8.36 12.84, 5.59 13.31, 4.19 12.91 C2.8 12.51, 2.13 10.96, 1.5 9.74 C0.87 8.52, 0.23 6.78, 0.42 5.57 C0.61 4.36, 1.29 3.34, 2.64 2.47 C3.99 1.59, 7.31 0.71, 8.51 0.32 C9.72 -0.08, 9.99 0.13, 9.85 0.1 M5.85 1.51 C7.15 1.05, 9.42 -0.22, 10.81 0.12 C12.19 0.46, 13.63 2.24, 14.18 3.57 C14.74 4.89, 14.83 6.79, 14.15 8.09 C13.48 9.39, 11.65 10.85, 10.15 11.38 C8.65 11.9, 6.63 11.46, 5.17 11.24 C3.71 11.02, 2 10.81, 1.38 10.08 C0.77 9.34, 1.54 7.96, 1.46 6.85 C1.39 5.73, 0.33 4.31, 0.92 3.36 C1.52 2.42, 4.2 1.58, 5.02 1.19 C5.84 0.79, 5.64 0.85, 5.86 1" stroke="none" stroke-width="0" fill="#fd7e14"/><path d="M4.22 0.29 C5.57 -0.11, 7.71 -0.09, 9.17 0.29 C10.63 0.67, 12.24 1.45, 12.98 2.55 C13.72 3.65, 14.01 5.5, 13.6 6.9 C13.18 8.3, 11.53 10.02, 10.49 10.96 C9.46 11.91, 8.76 12.72, 7.37 12.58 C5.97 12.43, 3.28 10.82, 2.12 10.08 C0.97 9.34, 0.57 9.34, 0.44 8.15 C0.31 6.95, 0.5 4.17, 1.36 2.92 C2.22 1.67, 5.01 1.04, 5.59 0.64 C6.16 0.24, 4.76 0.46, 4.81 0.53 M8.07 -0.67 C9.53 -0.21, 12.03 2.5, 12.85 3.79 C13.66 5.08, 13.25 5.7, 12.98 7.05 C12.7 8.41, 12.43 11.19, 11.21 11.91 C9.99 12.63, 6.95 11.49, 5.66 11.38 C4.37 11.28, 4.22 11.97, 3.48 11.27 C2.74 10.56, 1.6 8.56, 1.21 7.16 C0.82 5.76, 0.66 3.84, 1.12 2.88 C1.57 1.92, 2.73 1.59, 3.95 1.37 C5.17 1.15, 7.78 1.49, 8.43 1.55 C9.08 1.62, 7.74 1.73, 7.85 1.74" stroke="#000000" stroke-width="0.5" fill="none"/></g><g stroke-linecap="round" transform="translate(221.77734375 273.921875) rotate(0 6.59197998046875 6.23883056640625)"><path d="M8.51 0.06 C9.98 0.49, 12.35 2, 13.18 3.41 C14 4.81, 13.75 7.28, 13.44 8.51 C13.14 9.74, 12.37 10.16, 11.34 10.79 C10.32 11.41, 8.68 12.25, 7.29 12.25 C5.89 12.25, 4.19 11.66, 3 10.78 C1.8 9.9, 0.48 8.39, 0.1 6.95 C-0.28 5.5, -0.02 3.24, 0.7 2.1 C1.42 0.95, 2.65 0.19, 4.41 0.06 C6.17 -0.06, 10.18 0.91, 11.26 1.33 C12.34 1.76, 11.14 2.45, 10.89 2.6 M9.27 0.01 C10.49 0.26, 11.21 2.86, 11.86 3.78 C12.5 4.7, 12.96 4.57, 13.11 5.55 C13.26 6.53, 13.75 8.69, 12.76 9.67 C11.77 10.65, 9.01 11.01, 7.17 11.44 C5.32 11.87, 2.62 12.95, 1.7 12.27 C0.79 11.58, 1.94 8.93, 1.66 7.33 C1.38 5.73, -0.47 3.6, 0.02 2.65 C0.5 1.69, 3.12 2, 4.57 1.61 C6.01 1.21, 8.3 0.73, 8.71 0.26 C9.12 -0.22, 7.15 -1.1, 7 -1.24" stroke="none" stroke-width="0" fill="#82c91e"/><path d="M5.95 0.82 C7.15 0.43, 8.61 0.61, 9.66 1.08 C10.7 1.55, 11.66 2.31, 12.21 3.63 C12.77 4.94, 13.4 7.65, 12.96 8.95 C12.53 10.26, 10.82 10.81, 9.58 11.45 C8.34 12.1, 6.98 13.19, 5.53 12.83 C4.08 12.47, 1.67 10.4, 0.89 9.3 C0.11 8.2, 0.61 7.43, 0.87 6.22 C1.14 5.01, 1.42 3.09, 2.51 2.06 C3.59 1.02, 6.42 0.15, 7.41 0.01 C8.39 -0.13, 8.52 0.99, 8.43 1.22 M4.7 0.61 C5.84 0, 8.16 -0.07, 9.31 0.29 C10.46 0.65, 10.76 1.56, 11.6 2.77 C12.43 3.98, 14.48 6.29, 14.32 7.55 C14.16 8.8, 12.01 9.54, 10.64 10.3 C9.26 11.05, 7.21 12.06, 6.08 12.07 C4.95 12.08, 4.58 11.08, 3.85 10.35 C3.11 9.61, 2.21 8.63, 1.65 7.66 C1.1 6.7, -0.04 5.66, 0.52 4.55 C1.07 3.44, 4.31 1.59, 5 1.03 C5.68 0.47, 4.65 0.94, 4.61 1.19" stroke="#000000" stroke-width="0.5" fill="none"/></g><g stroke-linecap="round" transform="translate(332.48358154296875 271.6890869140625) rotate(0 6.59197998046875 6.23883056640625)"><path d="M10.49 0.42 C11.75 0.96, 13.07 2.42, 13.49 3.67 C13.9 4.91, 13.56 6.72, 12.97 7.88 C12.37 9.04, 11.14 9.92, 9.92 10.64 C8.71 11.36, 6.86 12.19, 5.67 12.22 C4.49 12.25, 3.8 11.64, 2.81 10.82 C1.81 10, -0.02 8.56, -0.3 7.3 C-0.58 6.04, 0.18 4.36, 1.14 3.25 C2.09 2.15, 3.75 0.86, 5.43 0.67 C7.11 0.49, 10.23 1.89, 11.21 2.14 C12.19 2.39, 11.3 2.25, 11.28 2.17 M4.33 -0.71 C5.14 -0.91, 6.2 0.69, 7.78 1.23 C9.36 1.78, 13.02 1.71, 13.81 2.57 C14.61 3.43, 12.92 4.81, 12.56 6.4 C12.19 7.99, 12.55 11.07, 11.63 12.1 C10.7 13.14, 8.73 13.06, 6.99 12.59 C5.24 12.12, 2.32 10.45, 1.17 9.29 C0.01 8.13, 0.12 6.69, 0.05 5.65 C-0.03 4.62, 0.09 4.13, 0.72 3.07 C1.34 2.01, 3.25 -0.47, 3.77 -0.72 C4.3 -0.98, 3.5 1.51, 3.85 1.54" stroke="none" stroke-width="0" fill="#be4bdb"/><path d="M4.14 0.1 C5.37 -0.4, 7.8 0.47, 9.07 0.82 C10.34 1.18, 10.93 1.16, 11.75 2.26 C12.57 3.36, 13.98 5.98, 13.98 7.43 C13.97 8.88, 12.91 10.12, 11.72 10.96 C10.53 11.79, 8.44 12.3, 6.83 12.45 C5.23 12.59, 3.26 12.54, 2.08 11.83 C0.89 11.13, 0.05 9.51, -0.3 8.21 C-0.64 6.91, -0.83 5.29, 0.02 4.04 C0.87 2.79, 3.95 1.24, 4.81 0.7 C5.68 0.15, 5.2 0.8, 5.2 0.77 M5.91 -0.55 C6.92 -0.83, 8.42 0.12, 9.82 0.89 C11.22 1.66, 13.62 2.68, 14.31 4.06 C14.99 5.45, 14.84 7.69, 13.94 9.21 C13.03 10.74, 10.28 12.62, 8.87 13.21 C7.47 13.8, 6.75 13.25, 5.52 12.74 C4.29 12.24, 2.35 11.17, 1.51 10.19 C0.67 9.22, 0.23 8.29, 0.5 6.92 C0.76 5.54, 1.94 3.21, 3.11 1.94 C4.28 0.66, 6.97 -0.27, 7.49 -0.73 C8.01 -1.18, 6.51 -1.2, 6.21 -0.79" stroke="#000000" stroke-width="0.5" fill="none"/></g><g stroke-linecap="round" transform="translate(143.2410888671875 406.68768310546875) rotate(0 6.59197998046875 6.23883056640625)"><path d="M5.54 0.68 C6.68 0.54, 8.81 1.03, 10.1 1.74 C11.4 2.46, 12.79 3.65, 13.32 4.97 C13.86 6.28, 13.94 8.48, 13.29 9.63 C12.65 10.78, 10.66 11.45, 9.45 11.89 C8.23 12.32, 7.44 12.44, 5.98 12.26 C4.53 12.07, 1.78 11.89, 0.71 10.78 C-0.37 9.66, -0.54 7.23, -0.47 5.6 C-0.39 3.97, -0.06 1.77, 1.17 0.99 C2.4 0.2, 6.03 1.08, 6.9 0.89 C7.77 0.7, 6.61 -0.24, 6.39 -0.16 M7.56 -1.23 C8.74 -1.19, 11.22 0.07, 12.09 1.48 C12.96 2.88, 13.09 5.82, 12.77 7.2 C12.46 8.58, 11.32 8.7, 10.21 9.78 C9.09 10.85, 7.2 13.62, 6.11 13.63 C5.01 13.64, 4.45 10.65, 3.64 9.85 C2.84 9.05, 1.62 9.94, 1.26 8.83 C0.9 7.73, 0.84 4.8, 1.49 3.24 C2.14 1.69, 3.86 -0.15, 5.16 -0.51 C6.45 -0.87, 8.83 0.7, 9.26 1.07 C9.68 1.44, 7.65 1.96, 7.71 1.73" stroke="none" stroke-width="0" fill="#228be6"/><path d="M6.32 0.71 C7.58 0.79, 9.5 1.38, 10.5 2.27 C11.5 3.16, 12 4.79, 12.32 6.06 C12.64 7.33, 13.01 8.79, 12.42 9.88 C11.84 10.97, 10.18 12.32, 8.81 12.62 C7.45 12.92, 5.56 12.11, 4.21 11.68 C2.86 11.25, 1.36 11.2, 0.73 10.05 C0.1 8.89, 0.22 6.3, 0.44 4.77 C0.67 3.23, 0.82 1.47, 2.09 0.85 C3.36 0.24, 6.86 0.9, 8.05 1.07 C9.23 1.24, 9.16 1.97, 9.18 1.9 M9.65 1.1 C10.84 1.68, 12.18 3.76, 12.9 4.9 C13.63 6.04, 14.18 7.01, 13.98 7.94 C13.79 8.87, 13.05 9.89, 11.74 10.49 C10.43 11.09, 7.85 11.31, 6.14 11.55 C4.43 11.79, 2.47 12.56, 1.47 11.9 C0.46 11.25, -0.05 8.95, 0.11 7.62 C0.27 6.3, 1.78 4.94, 2.44 3.96 C3.09 2.98, 2.99 2.11, 4.06 1.75 C5.12 1.39, 8 1.97, 8.83 1.79 C9.66 1.61, 9.05 0.88, 9.04 0.68" stroke="#000000" stroke-width="0.5" fill="none"/></g><g stroke-linecap="round" transform="translate(138.425537109375 182.17337036132812) rotate(0 6.59197998046875 6.23883056640625)"><path d="M6.77 -0.62 C8.15 -0.76, 9 -0.2, 10.18 0.87 C11.36 1.94, 13.66 4.27, 13.86 5.8 C14.06 7.34, 12.07 8.94, 11.36 10.08 C10.65 11.22, 10.79 12.16, 9.6 12.64 C8.4 13.11, 5.75 13.36, 4.19 12.9 C2.62 12.44, 0.78 11.26, 0.19 9.89 C-0.4 8.52, 0.13 5.93, 0.64 4.68 C1.16 3.42, 2.36 3.2, 3.26 2.34 C4.16 1.48, 5.53 -0.22, 6.04 -0.49 C6.54 -0.76, 6.29 0.51, 6.28 0.72 M3.18 -0.9 C4.47 -1.58, 6.51 0.37, 8.09 1.07 C9.66 1.77, 11.59 2.11, 12.63 3.31 C13.67 4.51, 14.5 7.14, 14.35 8.27 C14.19 9.4, 12.75 9.34, 11.7 10.09 C10.64 10.84, 9.49 12.42, 8 12.77 C6.51 13.13, 4.01 13.04, 2.75 12.24 C1.49 11.44, 0.68 9.69, 0.46 7.98 C0.25 6.26, 0.68 3.27, 1.46 1.97 C2.23 0.67, 4.8 0.65, 5.09 0.18 C5.38 -0.28, 3.21 -1.19, 3.19 -0.81" stroke="none" stroke-width="0" fill="#fa5252"/><path d="M7.75 0.85 C8.84 0.84, 10.23 1.23, 11.03 2.03 C11.83 2.82, 12.32 4.29, 12.57 5.64 C12.81 7, 13.2 8.88, 12.5 10.16 C11.79 11.43, 9.72 13.07, 8.34 13.26 C6.95 13.46, 5.35 12.15, 4.2 11.32 C3.06 10.5, 1.95 9.5, 1.45 8.31 C0.95 7.13, 0.91 5.47, 1.2 4.22 C1.49 2.97, 1.96 1.6, 3.18 0.83 C4.4 0.05, 7.42 -0.4, 8.53 -0.4 C9.63 -0.4, 9.62 0.55, 9.8 0.83 M6.6 0.69 C7.87 0.61, 9.46 1.31, 10.72 1.88 C11.98 2.44, 13.81 2.75, 14.16 4.08 C14.51 5.41, 13.58 8.75, 12.84 9.87 C12.1 11, 10.77 10.52, 9.73 10.82 C8.69 11.11, 8.03 11.91, 6.59 11.65 C5.15 11.38, 2.43 10, 1.1 9.2 C-0.24 8.4, -1.73 8.18, -1.42 6.86 C-1.12 5.54, 1.85 2.63, 2.94 1.28 C4.03 -0.06, 4.48 -1.17, 5.1 -1.21 C5.72 -1.24, 6.45 0.72, 6.67 1.06" stroke="#000000" stroke-width="0.5" fill="none"/></g><g transform="translate(92.31646450849684 10.289729191706783) rotate(0 37.5 9.5)"><text x="0" y="15" font-family="Helvetica, Segoe UI Emoji" font-size="16px" fill="#000000" text-anchor="start" style="white-space: pre;" direction="ltr">eventTime</text></g><g transform="translate(490.30127144960255 364.78238619290875) rotate(0 57 9.5)"><text x="0" y="15" font-family="Helvetica, Segoe UI Emoji" font-size="16px" fill="#000000" text-anchor="start" style="white-space: pre;" direction="ltr">processingTime</text></g><g stroke-linecap="round"><g transform="translate(173.88185508503364 280.742919921875) rotate(0 -0.2730865478515625 35.518280029296875)"><path d="M-0.12 0.96 C-0.18 12.59, 0.5 58.63, 0.61 70.46" stroke="#364fc7" stroke-width="2.5" fill="none" stroke-dasharray="8 10"/></g></g><g stroke-linecap="round" transform="translate(194.21706016315864 346.25860595703125) rotate(0 6.59197998046875 6.23883056640625)"><path d="M7.97 0.19 C9.1 0.35, 9.96 1.9, 10.68 2.99 C11.4 4.08, 12.17 5.42, 12.32 6.76 C12.47 8.09, 12.43 10.19, 11.59 10.99 C10.76 11.8, 8.8 11.5, 7.33 11.59 C5.85 11.68, 3.92 12.09, 2.76 11.52 C1.6 10.96, 0.91 9.27, 0.37 8.19 C-0.16 7.12, -0.98 6.47, -0.44 5.09 C0.11 3.72, 2.1 0.84, 3.66 -0.07 C5.22 -0.98, 8.22 -0.42, 8.92 -0.37 C9.63 -0.32, 8.13 -0.01, 7.87 0.23 M4.4 0.32 C5.6 0.29, 8.31 1.79, 9.48 2.34 C10.64 2.9, 10.96 2.49, 11.38 3.67 C11.81 4.86, 12.39 8.29, 12.02 9.46 C11.66 10.63, 10.56 10.08, 9.2 10.71 C7.83 11.34, 5.02 13.22, 3.83 13.23 C2.65 13.25, 2.62 11.79, 2.09 10.79 C1.55 9.78, 0.88 8.44, 0.63 7.2 C0.37 5.96, -0.23 4.51, 0.56 3.36 C1.36 2.21, 4.7 0.85, 5.42 0.29 C6.14 -0.26, 4.64 0.02, 4.87 0.03" stroke="none" stroke-width="0" fill="#be4bdb"/><path d="M7.82 0.15 C9.19 0.3, 10.75 1.5, 11.75 2.6 C12.75 3.7, 14 5.53, 13.82 6.77 C13.64 8, 11.87 9.05, 10.68 10.03 C9.5 11, 8.11 12.57, 6.7 12.63 C5.29 12.69, 3.29 11.17, 2.22 10.39 C1.16 9.61, 0.61 8.95, 0.32 7.92 C0.03 6.9, -0.08 5.42, 0.51 4.25 C1.09 3.08, 2.44 1.4, 3.81 0.88 C5.19 0.36, 7.69 1.13, 8.74 1.15 C9.8 1.16, 10.21 0.88, 10.12 0.98 M8.29 1.4 C9.78 1.59, 12.87 2.03, 13.79 3.32 C14.71 4.61, 14.5 7.64, 13.8 9.15 C13.09 10.66, 11.06 11.63, 9.56 12.38 C8.05 13.12, 6.32 13.96, 4.79 13.61 C3.25 13.26, 1.31 11.66, 0.37 10.28 C-0.57 8.91, -0.84 6.75, -0.85 5.37 C-0.85 3.98, -0.61 3.04, 0.34 1.97 C1.29 0.9, 3.1 -0.73, 4.84 -1.05 C6.58 -1.38, 10.27 -0.29, 10.8 0 C11.32 0.29, 8.07 0.61, 7.99 0.69" stroke="#000000" stroke-width="0.5" fill="none"/></g><g stroke-linecap="round"><g transform="translate(253.89421470417426 199.34400939941406) rotate(0 0.408721923828125 76.22721099853516)"><path d="M-1.22 0.13 C0.15 33.49, -0.42 68.44, 2.02 153.21" stroke="#364fc7" stroke-width="2.5" fill="none" stroke-dasharray="8 10"/></g></g></svg>